<?xml version="1.0" encoding="UTF-8" standalone="no"?>
<!DOCTYPE svg PUBLIC "-//W3C//DTD SVG 1.1//EN"
 "http://www.w3.org/Graphics/SVG/1.1/DTD/svg11.dtd">
<!-- Generated by graphviz version 2.40.1 (20161225.0304)
 -->
<!-- Title: G Pages: 1 -->
<svg width="175pt" height="95pt"
 viewBox="0.00 0.00 174.82 95.00" xmlns="http://www.w3.org/2000/svg" xmlns:xlink="http://www.w3.org/1999/xlink">
<g id="graph0" class="graph" transform="scale(1 1) rotate(0) translate(4 91)">
<title>G</title>
<polygon fill="#ffffff" stroke="transparent" points="-4,4 -4,-91 170.8193,-91 170.8193,4 -4,4"/>
<g id="clust1" class="cluster">
<title>cluster_Global</title>
<path fill="none" stroke="#c0c0c0" d="M20,-8C20,-8 146.8193,-8 146.8193,-8 152.8193,-8 158.8193,-14 158.8193,-20 158.8193,-20 158.8193,-67 158.8193,-67 158.8193,-73 152.8193,-79 146.8193,-79 146.8193,-79 20,-79 20,-79 14,-79 8,-73 8,-67 8,-67 8,-20 8,-20 8,-14 14,-8 20,-8"/>
<text text-anchor="middle" x="83.4097" y="-66.2" font-family="Times,serif" font-size="11.00" fill="#c0c0c0">Global</text>
</g>
<!-- \\GooglePageSpeedAPI -->
<g id="node1" class="node">
<title>\\GooglePageSpeedAPI</title>
<polygon fill="none" stroke="#000000" points="150.7291,-52 16.0902,-52 16.0902,-16 150.7291,-16 150.7291,-52"/>
<text text-anchor="middle" x="83.4097" y="-30.7" font-family="Courier,monospace" font-size="11.00" fill="#000000">GooglePageSpeedAPI</text>
</g>
</g>
</svg>
